# xmcd CD database file generated by Grip 3.0.0
# 
# Track frame offsets:
#       187
#       15762
#       36357
#       75075
#       94987
#       109477
#       129492
#       144077
#       159815
#       178520
# 
# Disc length: 2849 seconds
# 
# Revision: 2
# Processed by: cddbd v1.4PL0 Copyright (c) Steve Scherf et al.
# Submitted via: Grip 3.0.0
# 
DISCID=690b1f0a
DTITLE=George Thorogood And The Destroyers - George Thorogood And The Destroy
DTITLE=ers
DYEAR=1986
DGENRE=Blues
TTITLE0=You Got To Lose
TTITLE1=Madison Blues
TTITLE2=One Bourbon, One Scotch, One Beer
TTITLE3=Kind Hearted Woman
TTITLE4=Can't Stop Lovin'
TTITLE5=Ride On Josephine
TTITLE6=Homesick Boy
TTITLE7=John Hardy
TTITLE8=I'll Change My Style
TTITLE9=Delaware Slide
EXTD=
EXTT0=(E. Hooker)
EXTT1=(E. James)
EXTT2=(John Lee Hooker)
EXTT3=(Robert Johnson/arr. George Thorogood)
EXTT4=(E. James)
EXTT5=(E. McDaniel)
EXTT6=(G. Thorogood)
EXTT7=(Trad., arr. George Thorogood)
EXTT8=(Parker-Villa)
EXTT9=(George Thorogood)
PLAYORDER=
